<svg xmlns="http://www.w3.org/2000/svg" width="600" height="400" viewBox="0 0 600 400">
  <rect width="600" height="400" fill="#fef6ff" />
  <circle cx="90" cy="80" r="40" fill="#ffe6a7" />
  <path d="M160 110c0-18 18-32 40-32 14 0 26 6 32 16 4-2 9-3 14-3 18 0 32 14 32 32 0 18-14 32-32 32h-86c-18 0-32-14-32-32z" fill="#e0f2ff" />
  <path d="M260 300c0-50 40-90 90-90s90 40 90 90" fill="#c3f5d4" />
  <path d="M260 300h180v40H260z" fill="#a8e6cf" />
  <path d="M320 260l-30-60 40 10 20-30 20 30 40-10-30 60z" fill="#ffb4c2" />
  <circle cx="350" cy="250" r="14" fill="#4a4a4a" />
  <circle cx="390" cy="250" r="14" fill="#4a4a4a" />
  <path d="M350 280c12 12 28 12 40 0" stroke="#4a4a4a" stroke-width="6" fill="none" stroke-linecap="round" />
  <path d="M260 300c-20-30-10-70 20-90" stroke="#ff8fa3" stroke-width="10" fill="none" stroke-linecap="round" />
  <path d="M440 300c20-30 10-70-20-90" stroke="#ff8fa3" stroke-width="10" fill="none" stroke-linecap="round" />
  <circle cx="460" cy="310" r="12" fill="#ffd1dc" />
  <circle cx="250" cy="310" r="12" fill="#ffd1dc" />
</svg>
